<?xml version="1.0" encoding="iso-8859-1"?>
<!-- Generator: Adobe Illustrator 19.2.1, SVG Export Plug-In . SVG Version: 6.00 Build 0)  -->
<svg version="1.1" xmlns="http://www.w3.org/2000/svg" xmlns:xlink="http://www.w3.org/1999/xlink" x="0px" y="0px"
	 viewBox="0 0 32 32" style="enable-background:new 0 0 32 32;" xml:space="preserve">
<g id="Layer_11">
	<path style="fill:#95CC29;" d="M15.999,28c0.256,0,0.512-0.098,0.707-0.293l5.97-5.97c1.409-1.409,1.752-3.678,0.588-5.294
		c-1.484-2.06-4.375-2.232-6.093-0.514l-1.172,1.172l-1.172-1.172c-1.718-1.718-4.609-1.547-6.093,0.514
		c-1.164,1.617-0.821,3.885,0.588,5.294l5.97,5.97C15.487,27.902,15.743,28,15.999,28z"/>
	<path style="fill:#666666;" d="M28.999,2H24V1c0-0.552-0.448-1-1-1s-1,0.448-1,1v1H10V1c0-0.552-0.448-1-1-1S8,0.448,8,1v1H2.999
		C1.341,2.001,0,3.343,0,5v24c0,1.657,1.341,2.999,2.999,3h26C30.656,31.999,32,30.657,32,29V5C32,3.343,30.656,2.001,28.999,2z
		 M30,29c0,0.552-0.45,0.999-1.001,1h-26C2.447,29.999,2,29.552,2,29V12h28V29z M30,10H2V5c0-0.552,0.447-0.999,0.999-1H8v3
		c0,0.552,0.448,1,1,1s1-0.448,1-1V4h12v3c0,0.552,0.448,1,1,1s1-0.448,1-1V4h4.999C29.55,4.001,30,4.448,30,5V10z"/>
	<rect style="fill:none;" width="32" height="32"/>
</g>
<g id="Layer_1">
</g>
</svg>
